<svg width="19" height="19" viewBox="0 0 19 19" fill="none" xmlns="http://www.w3.org/2000/svg">
<path fill-rule="evenodd" clip-rule="evenodd" d="M17.131 1.16C16.5684 0.597585 15.8055 0.281639 15.01 0.281639C14.2145 0.281639 13.4516 0.597585 12.889 1.16L12.182 1.868L17.132 6.818L17.838 6.111C18.1167 5.83242 18.3377 5.50168 18.4885 5.13767C18.6393 4.77366 18.7169 4.38351 18.7169 3.9895C18.7169 3.59549 18.6393 3.20534 18.4885 2.84133C18.3377 2.47732 18.1167 2.14658 17.838 1.868L17.131 1.16ZM15.717 8.232L10.767 3.282L1.67703 12.373C1.47811 12.572 1.33915 12.8228 1.27603 13.097L0.247026 17.552C0.208685 17.7174 0.213083 17.8898 0.259805 18.053C0.306527 18.2163 0.394036 18.3649 0.514085 18.4849C0.634134 18.605 0.78277 18.6925 0.94599 18.7392C1.10921 18.7859 1.28164 18.7903 1.44703 18.752L5.90303 17.724C6.17683 17.6607 6.42735 17.5218 6.62603 17.323L15.717 8.232Z" fill="#08315C"/>
</svg>
