<svg width="19" height="19" viewBox="0 0 19 19" fill="none" xmlns="http://www.w3.org/2000/svg">
<path id="Vector" fill-rule="evenodd" clip-rule="evenodd" d="M16.9142 0.87836C16.3516 0.315946 15.5887 0 14.7932 0C13.9977 0 13.2348 0.315946 12.6722 0.87836L11.9652 1.58636L16.9152 6.53636L17.6212 5.82936C17.8999 5.55078 18.1209 5.22004 18.2717 4.85603C18.4225 4.49202 18.5001 4.10187 18.5001 3.70786C18.5001 3.31385 18.4225 2.9237 18.2717 2.55969C18.1209 2.19568 17.8999 1.86494 17.6212 1.58636L16.9142 0.87836ZM15.5002 7.95036L10.5502 3.00036L1.46023 12.0914C1.26131 12.2903 1.12235 12.5412 1.05923 12.8154L0.0302288 17.2704C-0.0081122 17.4357 -0.00371431 17.6082 0.043008 17.7714C0.0897304 17.9346 0.177239 18.0833 0.297288 18.2033C0.417337 18.3233 0.565974 18.4109 0.729193 18.4576C0.892412 18.5043 1.06484 18.5087 1.23023 18.4704L5.68623 17.4424C5.96003 17.3791 6.21055 17.2401 6.40923 17.0414L15.5002 7.95036Z" fill="#FF6B00"/>
</svg>
