<svg width="16" height="16" viewBox="0 0 16 16" fill="none" xmlns="http://www.w3.org/2000/svg">
<g id="pajamas:label">
<path id="Vector" fill-rule="evenodd" clip-rule="evenodd" d="M9.66398 1C9.20008 0.999966 8.75515 1.18412 8.42698 1.512L1.51398 8.419C1.35139 8.58144 1.2224 8.77431 1.13435 8.98661C1.04631 9.1989 1.00095 9.42647 1.00085 9.65629C1.00076 9.88612 1.04594 10.1137 1.13381 10.3261C1.22168 10.5385 1.35053 10.7314 1.51298 10.894L5.09998 14.48C5.42813 14.8079 5.87307 14.9921 6.33698 14.9921C6.8009 14.9921 7.24583 14.8079 7.57398 14.48L14.488 7.574C14.6506 7.41127 14.7795 7.21807 14.8673 7.00547C14.9552 6.79287 15.0003 6.56504 15 6.335V1H9.66398ZM9.48698 2.573C9.51024 2.5498 9.53784 2.53141 9.56822 2.51888C9.59859 2.50636 9.63113 2.49994 9.66398 2.5H13.5V6.335C13.5 6.36785 13.4936 6.40039 13.4811 6.43077C13.4686 6.46114 13.4502 6.48874 13.427 6.512L6.51298 13.42C6.46612 13.4667 6.40265 13.4929 6.33648 13.4929C6.27031 13.4929 6.20684 13.4667 6.15998 13.42L2.57398 9.833C2.52727 9.78614 2.50103 9.72267 2.50103 9.6565C2.50103 9.59033 2.52727 9.52686 2.57398 9.48L9.48698 2.573ZM11 6C11.2652 6 11.5196 5.89464 11.7071 5.70711C11.8946 5.51957 12 5.26522 12 5C12 4.73478 11.8946 4.48043 11.7071 4.29289C11.5196 4.10536 11.2652 4 11 4C10.7348 4 10.4804 4.10536 10.2929 4.29289C10.1053 4.48043 9.99998 4.73478 9.99998 5C9.99998 5.26522 10.1053 5.51957 10.2929 5.70711C10.4804 5.89464 10.7348 6 11 6Z" fill="white"/>
</g>
</svg>
